<svg xmlns="http://www.w3.org/2000/svg" viewBox="0 0 900 360"><defs><radialGradient id="r"><stop stop-color="#f59abb" stop-opacity=".38"/><stop offset="1" stop-color="#fff" stop-opacity="0"/></radialGradient></defs><rect width="900" height="360" rx="30" fill="#fff9fb" stroke="#e6b4c8" stroke-width="2"/><circle cx="700" cy="180" r="135" fill="url(#r)"/><g stroke="#d88aa7" fill="none"><circle cx="700" cy="180" r="86"><animateTransform attributeName="transform" type="rotate" from="0 700 180" to="360 700 180" dur="14s" repeatCount="indefinite"/></circle><circle cx="700" cy="180" r="112" stroke-dasharray="5 9"><animateTransform attributeName="transform" type="rotate" from="360 700 180" to="0 700 180" dur="18s" repeatCount="indefinite"/></circle></g><g fill="#d96d98"><circle cx="700" cy="94" r="5"><animateMotion dur="3s" repeatCount="indefinite" path="M0 0 A86 86 0 1 1 -1 0 A86 86 0 1 1 0 0"/></circle></g><g transform="translate(700 155)" stroke="#714957" stroke-width="3" fill="none"><path d="M-38 15Q-52-48 0-60Q52-48 38 15Q25 58 0 68Q-25 58-38 15Z"/><path d="M-25-8Q-10-28 0-10Q10-28 25-8"/><path d="M-22 10Q-10 18 0 10Q10 18 22 10"/><path d="M-12 42Q0 50 12 42"/></g><g font-family="Arial,sans-serif" fill="#3c2b33"><text x="58" y="92" font-size="12" letter-spacing="4" fill="#96687a">LIVE2D RESIDENTS</text><text x="58" y="145" font-size="30" font-weight="700">CHARACTER SPACE</text><text x="58" y="180" font-size="13" fill="#8c6c77">A visual layer for interaction, motion and presence.</text><text x="58" y="222" font-size="11" fill="#a06e81">ACTIVE · INTERACTIVE · EVOLVING</text><path d="M58 250H450" stroke="#e0b3c4"/><circle cx="58" cy="250" r="5" fill="#75ad9c"><animate attributeName="r" values="4;8;4" dur="2s" repeatCount="indefinite"/></circle></g></svg>